<svg xmlns="http://www.w3.org/2000/svg" viewBox="0 0 32 32">
  <defs>
    <linearGradient id="g" x1="0%" y1="0%" x2="100%" y2="100%">
      <stop offset="0%" style="stop-color:#06b6d4"/>
      <stop offset="100%" style="stop-color:#8b5cf6"/>
    </linearGradient>
  </defs>
  <rect width="32" height="32" rx="8" fill="url(#g)"/>
  <path d="M16 7a5 5 0 0 0-5 5v3h-1a1 1 0 0 0-1 1v8a1 1 0 0 0 1 1h12a1 1 0 0 0 1-1v-8a1 1 0 0 0-1-1h-1v-3a5 5 0 0 0-5-5zm-3 8v-3a3 3 0 1 1 6 0v3h-6zm4 5.7V23h-2v-2.3a1.5 1.5 0 1 1 2 0z" fill="white"/>
</svg>